# xmcd
#
# Track frame offsets: 
#        150
#        21600
#        44710
#        66016
#        96859
#        120330
#        138043
#        172182
#        189591
#        205353
#        223088
#        241000
#
# Disc length: 3490 seconds
#
# Revision: 0
# Processed by: cddbd v1.5.2PL0 Copyright (c) Steve Scherf et al.
# Submitted via: ExactAudioCopyFreeDBPlugin 1.0
#
DISCID=b20da00c
DTITLE=Marty O'Reilly and The Old Soul Orchestra - Pray For Rain
DYEAR=2014
DGENRE=Blues
TTITLE0=Dempsey
TTITLE1=The Captain's Daughter (pt 1)
TTITLE2=Cold Canary Gaslight
TTITLE3=Smokestack Lightning
TTITLE4=Cambium
TTITLE5=Cinnamon Tree
TTITLE6=When The Water Runs Out
TTITLE7=Letters
TTITLE8=A Stalker's Song
TTITLE9=Alone At The Table
TTITLE10=Dreamcatcher
TTITLE11=Cocoon
EXTD=
EXTT0=
EXTT1=
EXTT2=
EXTT3=
EXTT4=
EXTT5=
EXTT6=
EXTT7=
EXTT8=
EXTT9=
EXTT10=
EXTT11=
PLAYORDER=
